<?xml version="1.0" encoding="utf-8"?>
<!-- Generator: Adobe Illustrator 16.0.0, SVG Export Plug-In . SVG Version: 6.00 Build 0)  -->
<!DOCTYPE svg PUBLIC "-//W3C//DTD SVG 1.1//EN" "http://www.w3.org/Graphics/SVG/1.1/DTD/svg11.dtd">
<svg version="1.1" id="Layer_1" xmlns="http://www.w3.org/2000/svg" xmlns:xlink="http://www.w3.org/1999/xlink" x="0px" y="0px"
	 width="640px" height="1136px" viewBox="0 0 640 1136" enable-background="new 0 0 640 1136" xml:space="preserve">
<g display="none" opacity="0.8">
	<linearGradient id="SVGID_1_" gradientUnits="userSpaceOnUse" x1="275.2222" y1="716.4707" x2="478.3721" y2="716.4707">
		<stop  offset="0" style="stop-color:#ED1C24"/>
		<stop  offset="0.2004" style="stop-color:#F7931E"/>
		<stop  offset="0.3658" style="stop-color:#FCEE21"/>
		<stop  offset="0.5199" style="stop-color:#22B573"/>
		<stop  offset="0.6588" style="stop-color:#0071BC"/>
		<stop  offset="0.8244" style="stop-color:#93278F"/>
		<stop  offset="1" style="stop-color:#ED1E79"/>
	</linearGradient>
	<polygon display="inline" fill="none" stroke="url(#SVGID_1_)" stroke-miterlimit="10" points="326.289,803.942 275.799,716.478 
		326.289,629 427.298,629 477.795,716.478 427.298,803.942 	"/>
	<linearGradient id="SVGID_2_" gradientUnits="userSpaceOnUse" x1="167.4551" y1="716.4707" x2="370.6133" y2="716.4707">
		<stop  offset="0" style="stop-color:#ED1C24"/>
		<stop  offset="0.2004" style="stop-color:#F7931E"/>
		<stop  offset="0.3658" style="stop-color:#FCEE21"/>
		<stop  offset="0.5199" style="stop-color:#22B573"/>
		<stop  offset="0.6588" style="stop-color:#0071BC"/>
		<stop  offset="0.8244" style="stop-color:#93278F"/>
		<stop  offset="1" style="stop-color:#ED1E79"/>
	</linearGradient>
	<polygon display="inline" fill="none" stroke="url(#SVGID_2_)" stroke-miterlimit="10" points="218.538,803.942 168.033,716.478 
		218.538,629 319.533,629 370.036,716.478 319.533,803.942 	"/>
	<linearGradient id="SVGID_3_" gradientUnits="userSpaceOnUse" x1="274.9722" y1="550.1963" x2="478.1211" y2="550.1963">
		<stop  offset="0" style="stop-color:#ED1C24"/>
		<stop  offset="0.2004" style="stop-color:#F7931E"/>
		<stop  offset="0.3658" style="stop-color:#FCEE21"/>
		<stop  offset="0.5199" style="stop-color:#22B573"/>
		<stop  offset="0.6588" style="stop-color:#0071BC"/>
		<stop  offset="0.8244" style="stop-color:#93278F"/>
		<stop  offset="1" style="stop-color:#ED1E79"/>
	</linearGradient>
	<polygon display="inline" fill="none" stroke="url(#SVGID_3_)" stroke-miterlimit="10" points="326.051,637.67 275.55,550.191 
		326.051,462.722 427.05,462.722 477.544,550.191 427.05,637.67 	"/>
	<linearGradient id="SVGID_4_" gradientUnits="userSpaceOnUse" x1="167.2173" y1="550.1963" x2="370.3701" y2="550.1963">
		<stop  offset="0" style="stop-color:#ED1C24"/>
		<stop  offset="0.2004" style="stop-color:#F7931E"/>
		<stop  offset="0.3658" style="stop-color:#FCEE21"/>
		<stop  offset="0.5199" style="stop-color:#22B573"/>
		<stop  offset="0.6588" style="stop-color:#0071BC"/>
		<stop  offset="0.8244" style="stop-color:#93278F"/>
		<stop  offset="1" style="stop-color:#ED1E79"/>
	</linearGradient>
	<polygon display="inline" fill="none" stroke="url(#SVGID_4_)" stroke-miterlimit="10" points="218.3,637.67 167.795,550.191 
		218.3,462.722 319.297,462.722 369.793,550.191 319.297,637.67 	"/>
	<linearGradient id="SVGID_5_" gradientUnits="userSpaceOnUse" x1="173.1401" y1="627.2461" x2="472.6982" y2="627.2461">
		<stop  offset="0" style="stop-color:#ED1C24"/>
		<stop  offset="0.2004" style="stop-color:#F7931E"/>
		<stop  offset="0.3658" style="stop-color:#FCEE21"/>
		<stop  offset="0.5199" style="stop-color:#22B573"/>
		<stop  offset="0.6588" style="stop-color:#0071BC"/>
		<stop  offset="0.8244" style="stop-color:#93278F"/>
		<stop  offset="1" style="stop-color:#ED1E79"/>
	</linearGradient>
	<polygon display="inline" fill="none" stroke="url(#SVGID_5_)" stroke-miterlimit="10" points="248.312,756.46 173.718,627.244 
		248.312,498.032 397.518,498.032 472.121,627.244 397.518,756.46 	"/>
</g>
<g>
	<linearGradient id="SVGID_6_" gradientUnits="userSpaceOnUse" x1="104.9419" y1="316.7598" x2="168.7188" y2="316.7598">
		<stop  offset="0" style="stop-color:#ED1C24"/>
		<stop  offset="0.2004" style="stop-color:#F7931E"/>
		<stop  offset="0.3658" style="stop-color:#FCEE21"/>
		<stop  offset="0.5199" style="stop-color:#22B573"/>
		<stop  offset="0.6588" style="stop-color:#0071BC"/>
		<stop  offset="0.8244" style="stop-color:#93278F"/>
		<stop  offset="1" style="stop-color:#ED1E79"/>
	</linearGradient>
	<path fill="url(#SVGID_6_)" d="M161.557,299.085c-0.156-3.542-0.907-6.623-2.253-9.243c-1.35-2.618-3.178-4.813-5.488-6.585
		c-2.312-1.771-5.065-3.1-8.261-3.985c-3.198-0.885-6.683-1.328-10.456-1.328c-2.312,0-4.795,0.27-7.451,0.808
		c-2.658,0.541-5.124,1.484-7.395,2.831c-2.273,1.349-4.141,3.158-5.604,5.43c-1.463,2.272-2.194,5.104-2.194,8.491
		c0,3.313,0.808,6.008,2.425,8.088c1.617,2.078,3.735,3.754,6.354,5.024c2.619,1.271,5.623,2.293,9.012,3.062
		c3.387,0.771,6.815,1.502,10.281,2.195c3.542,0.693,6.99,1.522,10.34,2.483c3.35,0.964,6.354,2.273,9.012,3.928
		c2.658,1.658,4.794,3.813,6.411,6.47s2.427,5.989,2.427,9.994c0,4.314-0.925,7.934-2.773,10.859
		c-1.848,2.928-4.179,5.313-6.99,7.163c-2.812,1.848-5.932,3.177-9.358,3.986c-3.428,0.809-6.72,1.213-9.876,1.213
		c-4.853,0-9.397-0.52-13.633-1.56c-4.236-1.04-7.935-2.734-11.091-5.083c-3.158-2.349-5.642-5.374-7.451-9.07
		c-1.811-3.696-2.677-8.202-2.599-13.517h5.083c-0.231,4.545,0.422,8.376,1.963,11.495c1.541,3.12,3.679,5.681,6.413,7.683
		c2.732,2.003,5.949,3.448,9.646,4.332c3.698,0.887,7.586,1.329,11.67,1.329c2.462,0,5.101-0.307,7.913-0.924
		c2.811-0.616,5.39-1.654,7.741-3.118c2.349-1.464,4.312-3.389,5.893-5.777c1.576-2.387,2.369-5.391,2.369-9.011
		c0-3.467-0.81-6.296-2.427-8.492c-1.617-2.194-3.755-3.965-6.411-5.314c-2.658-1.347-5.662-2.427-9.012-3.234
		c-3.35-0.809-6.798-1.56-10.34-2.253c-3.465-0.694-6.894-1.502-10.281-2.426c-3.391-0.925-6.395-2.176-9.012-3.755
		c-2.619-1.578-4.737-3.619-6.354-6.123c-1.617-2.501-2.425-5.718-2.425-9.646c0-3.928,0.825-7.297,2.483-10.109
		c1.655-2.811,3.812-5.083,6.47-6.815c2.656-1.733,5.64-3.004,8.951-3.813c3.313-0.808,6.587-1.213,9.822-1.213
		c4.312,0,8.335,0.482,12.073,1.444c3.735,0.965,7.007,2.466,9.82,4.506c2.81,2.042,5.063,4.679,6.759,7.914
		c1.692,3.234,2.656,7.125,2.887,11.669H161.557z"/>
	<linearGradient id="SVGID_7_" gradientUnits="userSpaceOnUse" x1="180.5024" y1="316.7607" x2="236.5312" y2="316.7607">
		<stop  offset="0" style="stop-color:#ED1C24"/>
		<stop  offset="0.2004" style="stop-color:#F7931E"/>
		<stop  offset="0.3658" style="stop-color:#FCEE21"/>
		<stop  offset="0.5199" style="stop-color:#22B573"/>
		<stop  offset="0.6588" style="stop-color:#0071BC"/>
		<stop  offset="0.8244" style="stop-color:#93278F"/>
		<stop  offset="1" style="stop-color:#ED1E79"/>
	</linearGradient>
	<path fill="url(#SVGID_7_)" d="M180.502,275.516h55.453v4.391h-50.372v33.041h47.368v4.39h-47.368v36.276h50.948v4.392h-56.029
		V275.516z"/>
	<linearGradient id="SVGID_8_" gradientUnits="userSpaceOnUse" x1="245.1973" y1="316.7607" x2="308.9678" y2="316.7607">
		<stop  offset="0" style="stop-color:#ED1C24"/>
		<stop  offset="0.2004" style="stop-color:#F7931E"/>
		<stop  offset="0.3658" style="stop-color:#FCEE21"/>
		<stop  offset="0.5199" style="stop-color:#22B573"/>
		<stop  offset="0.6588" style="stop-color:#0071BC"/>
		<stop  offset="0.8244" style="stop-color:#93278F"/>
		<stop  offset="1" style="stop-color:#ED1E79"/>
	</linearGradient>
	<path fill="url(#SVGID_8_)" d="M245.197,275.516h6.353l52.104,75.672h0.23v-75.672h5.083v82.489h-6.008l-52.448-76.25h-0.233v76.25
		h-5.081V275.516z"/>
	<linearGradient id="SVGID_9_" gradientUnits="userSpaceOnUse" x1="320.7461" y1="316.7598" x2="384.5234" y2="316.7598">
		<stop  offset="0" style="stop-color:#ED1C24"/>
		<stop  offset="0.2004" style="stop-color:#F7931E"/>
		<stop  offset="0.3658" style="stop-color:#FCEE21"/>
		<stop  offset="0.5199" style="stop-color:#22B573"/>
		<stop  offset="0.6588" style="stop-color:#0071BC"/>
		<stop  offset="0.8244" style="stop-color:#93278F"/>
		<stop  offset="1" style="stop-color:#ED1E79"/>
	</linearGradient>
	<path fill="url(#SVGID_9_)" d="M377.361,299.085c-0.154-3.542-0.905-6.623-2.253-9.243c-1.35-2.618-3.176-4.813-5.487-6.585
		c-2.312-1.771-5.065-3.1-8.262-3.985c-3.195-0.885-6.681-1.328-10.455-1.328c-2.31,0-4.793,0.27-7.451,0.808
		c-2.656,0.541-5.122,1.484-7.393,2.831c-2.272,1.349-4.143,3.158-5.605,5.43c-1.463,2.272-2.194,5.104-2.194,8.491
		c0,3.313,0.81,6.008,2.426,8.088c1.619,2.078,3.735,3.754,6.355,5.024c2.617,1.271,5.621,2.293,9.013,3.062
		c3.387,0.771,6.813,1.502,10.279,2.195c3.543,0.693,6.989,1.522,10.342,2.483c3.35,0.964,6.354,2.273,9.012,3.928
		c2.655,1.658,4.793,3.813,6.41,6.47c1.618,2.657,2.426,5.989,2.426,9.994c0,4.314-0.923,7.934-2.771,10.859
		c-1.848,2.928-4.18,5.313-6.989,7.163c-2.812,1.848-5.933,3.177-9.358,3.986c-3.429,0.809-6.72,1.213-9.877,1.213
		c-4.854,0-9.398-0.52-13.633-1.56c-4.238-1.04-7.935-2.734-11.091-5.083c-3.161-2.349-5.645-5.374-7.451-9.07
		c-1.812-3.696-2.678-8.202-2.602-13.517h5.085c-0.23,4.545,0.423,8.376,1.964,11.495c1.541,3.12,3.677,5.681,6.41,7.683
		c2.734,2.003,5.952,3.448,9.647,4.332c3.699,0.887,7.587,1.329,11.67,1.329c2.463,0,5.101-0.307,7.913-0.924
		c2.811-0.616,5.39-1.654,7.741-3.118c2.347-1.464,4.311-3.389,5.891-5.777c1.578-2.387,2.37-5.391,2.37-9.011
		c0-3.467-0.81-6.296-2.427-8.492c-1.618-2.194-3.756-3.965-6.413-5.314c-2.656-1.347-5.66-2.427-9.012-3.234
		c-3.349-0.809-6.799-1.56-10.338-2.253c-3.466-0.694-6.896-1.502-10.283-2.426c-3.39-0.925-6.394-2.176-9.013-3.755
		c-2.616-1.578-4.736-3.619-6.352-6.123c-1.619-2.501-2.426-5.718-2.426-9.646c0-3.928,0.826-7.297,2.482-10.109
		c1.656-2.811,3.812-5.083,6.47-6.815c2.657-1.733,5.642-3.004,8.953-3.813c3.311-0.808,6.585-1.213,9.819-1.213
		c4.314,0,8.335,0.482,12.072,1.444c3.738,0.965,7.008,2.466,9.82,4.506c2.812,2.042,5.065,4.679,6.759,7.914
		c1.693,3.234,2.658,7.125,2.889,11.669H377.361z"/>
	<linearGradient id="SVGID_10_" gradientUnits="userSpaceOnUse" x1="396.3086" y1="317.7422" x2="459.3848" y2="317.7422">
		<stop  offset="0" style="stop-color:#ED1C24"/>
		<stop  offset="0.2004" style="stop-color:#F7931E"/>
		<stop  offset="0.3658" style="stop-color:#FCEE21"/>
		<stop  offset="0.5199" style="stop-color:#22B573"/>
		<stop  offset="0.6588" style="stop-color:#0071BC"/>
		<stop  offset="0.8244" style="stop-color:#93278F"/>
		<stop  offset="1" style="stop-color:#ED1E79"/>
	</linearGradient>
	<path fill="url(#SVGID_10_)" d="M401.39,275.516v49.446c0,1.618,0.076,3.505,0.23,5.661c0.154,2.157,0.538,4.373,1.156,6.645
		c0.616,2.272,1.482,4.504,2.599,6.7c1.115,2.196,2.639,4.16,4.564,5.894c1.925,1.731,4.291,3.118,7.104,4.158
		c2.812,1.041,6.219,1.56,10.225,1.56c5.085,0,9.339-0.711,12.767-2.138c3.427-1.422,6.2-3.465,8.318-6.122s3.64-5.873,4.562-9.647
		c0.925-3.772,1.389-8.01,1.389-12.709v-49.446h5.081v49.446c0,4.931-0.521,9.514-1.559,13.749
		c-1.039,4.236-2.793,7.934-5.258,11.091c-2.466,3.158-5.757,5.642-9.878,7.451c-4.119,1.809-9.263,2.715-15.423,2.715
		c-4.851,0-9.01-0.618-12.478-1.849c-3.466-1.23-6.335-2.83-8.605-4.793c-2.272-1.965-4.063-4.217-5.374-6.759
		c-1.311-2.541-2.308-5.101-3.004-7.683c-0.692-2.58-1.115-5.083-1.268-7.509c-0.156-2.426-0.23-4.563-0.23-6.413v-49.446H401.39z"
		/>
	<linearGradient id="SVGID_11_" gradientUnits="userSpaceOnUse" x1="471.165" y1="316.7598" x2="534.9414" y2="316.7598">
		<stop  offset="0" style="stop-color:#ED1C24"/>
		<stop  offset="0.2004" style="stop-color:#F7931E"/>
		<stop  offset="0.3658" style="stop-color:#FCEE21"/>
		<stop  offset="0.5199" style="stop-color:#22B573"/>
		<stop  offset="0.6588" style="stop-color:#0071BC"/>
		<stop  offset="0.8244" style="stop-color:#93278F"/>
		<stop  offset="1" style="stop-color:#ED1E79"/>
	</linearGradient>
	<path fill="url(#SVGID_11_)" d="M527.78,299.085c-0.157-3.542-0.907-6.623-2.253-9.243c-1.35-2.618-3.179-4.813-5.488-6.585
		c-2.312-1.771-5.065-3.1-8.261-3.985c-3.197-0.885-6.685-1.328-10.455-1.328c-2.312,0-4.796,0.27-7.451,0.808
		c-2.658,0.541-5.124,1.484-7.396,2.831c-2.274,1.349-4.14,3.158-5.603,5.43c-1.463,2.272-2.194,5.104-2.194,8.491
		c0,3.313,0.808,6.008,2.425,8.088c1.617,2.078,3.735,3.754,6.354,5.024c2.618,1.271,5.623,2.293,9.01,3.062
		c3.39,0.771,6.817,1.502,10.283,2.195c3.542,0.693,6.99,1.522,10.34,2.483c3.351,0.964,6.354,2.273,9.01,3.928
		c2.66,1.658,4.796,3.813,6.413,6.47s2.427,5.989,2.427,9.994c0,4.314-0.925,7.934-2.772,10.859c-1.851,2.928-4.18,5.313-6.99,7.163
		c-2.812,1.848-5.932,3.177-9.358,3.986c-3.428,0.809-6.722,1.213-9.878,1.213c-4.851,0-9.396-0.52-13.632-1.56
		c-4.235-1.04-7.932-2.734-11.091-5.083c-3.158-2.349-5.642-5.374-7.451-9.07c-1.811-3.696-2.677-8.202-2.599-13.517h5.083
		c-0.231,4.545,0.422,8.376,1.963,11.495c1.539,3.12,3.679,5.681,6.413,7.683c2.732,2.003,5.949,3.448,9.646,4.332
		c3.696,0.887,7.584,1.329,11.668,1.329c2.464,0,5.103-0.307,7.915-0.924c2.811-0.616,5.39-1.654,7.74-3.118
		c2.35-1.464,4.312-3.389,5.893-5.777c1.576-2.387,2.367-5.391,2.367-9.011c0-3.467-0.811-6.296-2.426-8.492
		c-1.617-2.194-3.755-3.965-6.41-5.314c-2.658-1.347-5.662-2.427-9.013-3.234c-3.352-0.809-6.798-1.56-10.342-2.253
		c-3.466-0.694-6.892-1.502-10.279-2.426c-3.391-0.925-6.396-2.176-9.012-3.755c-2.621-1.578-4.737-3.619-6.354-6.123
		c-1.617-2.501-2.427-5.718-2.427-9.646c0-3.928,0.827-7.297,2.483-10.109c1.655-2.811,3.814-5.083,6.47-6.815
		c2.658-1.733,5.641-3.004,8.953-3.813c3.313-0.808,6.587-1.213,9.822-1.213c4.312,0,8.335,0.482,12.07,1.444
		c3.735,0.965,7.01,2.466,9.821,4.506c2.811,2.042,5.063,4.679,6.76,7.914c1.691,3.234,2.655,7.125,2.887,11.669H527.78z"/>
</g>
<linearGradient id="SVGID_12_" gradientUnits="userSpaceOnUse" x1="0" y1="246" x2="105" y2="246">
	<stop  offset="0" style="stop-color:#ED1C24"/>
	<stop  offset="0.2004" style="stop-color:#F7931E"/>
	<stop  offset="0.3658" style="stop-color:#FCEE21"/>
	<stop  offset="0.5199" style="stop-color:#22B573"/>
	<stop  offset="0.6588" style="stop-color:#0071BC"/>
	<stop  offset="0.8244" style="stop-color:#93278F"/>
	<stop  offset="1" style="stop-color:#ED1E79"/>
</linearGradient>
<rect y="196" display="none" fill="url(#SVGID_12_)" width="105" height="100"/>
<linearGradient id="SVGID_13_" gradientUnits="userSpaceOnUse" x1="535" y1="246" x2="640" y2="246">
	<stop  offset="0" style="stop-color:#ED1C24"/>
	<stop  offset="0.2004" style="stop-color:#F7931E"/>
	<stop  offset="0.3658" style="stop-color:#FCEE21"/>
	<stop  offset="0.5199" style="stop-color:#22B573"/>
	<stop  offset="0.6588" style="stop-color:#0071BC"/>
	<stop  offset="0.8244" style="stop-color:#93278F"/>
	<stop  offset="1" style="stop-color:#ED1E79"/>
</linearGradient>
<rect x="535" y="196" display="none" fill="url(#SVGID_13_)" width="105" height="100"/>
<image display="none" overflow="visible" width="320" height="568" xlink:href="sensusName.png"  transform="matrix(2 0 0 2 0 0)">
</image>
</svg>
